<?xml version="1.0" encoding="utf-8"?>
<!-- Generator: Adobe Illustrator 23.0.3, SVG Export Plug-In . SVG Version: 6.00 Build 0)  -->
<svg version="1.1" id="katman_1" xmlns="http://www.w3.org/2000/svg" xmlns:xlink="http://www.w3.org/1999/xlink" x="0px" y="0px"
	 viewBox="0 0 50 49" style="enable-background:new 0 0 50 49;" xml:space="preserve">
<style type="text/css">
	.st0{fill-rule:evenodd;clip-rule:evenodd;fill:#0A0A0A;}
</style>
<path class="st0" d="M48.8,7.9L41,15c1.6,3.7,3,8.5,1.4,11.9c0,0,0,0.1-0.1,0.1l-3.2,5.2L37.2,31l3.2-5.2c1.7-3.6-1.5-10.6-3.5-14
	l-3.4,2.9C33.3,14.9,33,15,32.8,15c-0.3,0-0.6-0.1-0.9-0.4c-0.4-0.5-0.4-1.2,0.1-1.6l8.6-7.4c0.5-0.4,1.2-0.4,1.6,0.1
	c0.4,0.5,0.4,1.2-0.1,1.6l-3.5,3c0.3,0.6,0.8,1.4,1.4,2.5L46.5,7L43,2.5c-0.4-0.5-0.3-1.2,0.2-1.6s1.2-0.3,1.6,0.2L49,6.4
	C49.3,6.9,49.2,7.5,48.8,7.9z M41,43.9c-0.3,0.9-0.8,1.7-1.3,2.3h5c0.6,0,1.1,0.5,1.1,1.1s-0.5,1.1-1.1,1.1H32.3c-0.2,0-0.5,0-0.7,0
	c-0.3,0-0.5,0-0.8,0h-0.7H1.9c-0.6,0-1.1-0.5-1.1-1.1s0.5-1.1,1.1-1.1h3.7c-0.8-0.7-1.6-1.6-2.2-2.7c-2.5-4.2-2.8-9.9-0.7-13.6
	c3.5-6.4,11.8-8.6,18.6-4.9l13.5,7.4C40.5,35.5,42.6,39.3,41,43.9z M20.2,27c-5.7-3.1-12.6-1.3-15.5,4C3,34,3.3,38.8,5.4,42.3
	c0.8,1.4,2.8,3.8,6,3.8h18.5h0.2h1.2c4.4,0,6.7-0.2,7.6-3c0.8-2.3,0.9-5.5-5.2-8.8L20.2,27z M22.9,43.8h-6.8c-0.6,0-1.1-0.5-1.1-1.1
	s0.5-1.1,1.1-1.1h1.3l-2.3-2.4c-0.6,0.3-1.4,0.5-2.1,0.5c-2.6,0-4.8-2.1-4.8-4.8c0-2.6,2.1-4.8,4.8-4.8c2.6,0,4.8,2.1,4.8,4.8
	c0,1-0.3,2-0.9,2.8l3.7,3.9H23c0.6,0,1.1,0.5,1.1,1.1C24,43.3,23.5,43.8,22.9,43.8z M13,32.3c-1.4,0-2.5,1.1-2.5,2.5
	s1.1,2.5,2.5,2.5s2.5-1.1,2.5-2.5S14.4,32.3,13,32.3z M15.4,17.4h-4.7L12,21l-2.1,0.8l-1.5-4.3h-3c-0.6,0-1.1-0.5-1.1-1.1
	s0.5-1.1,1.1-1.1h10.1c0.6,0,1.1,0.5,1.1,1.1C16.5,16.9,16,17.4,15.4,17.4z"/>
</svg>
