<?xml version="1.0" encoding="utf-8"?>
<!-- Generator: Adobe Illustrator 23.0.3, SVG Export Plug-In . SVG Version: 6.00 Build 0)  -->
<svg version="1.1" id="Warstwa_1" xmlns="http://www.w3.org/2000/svg" xmlns:xlink="http://www.w3.org/1999/xlink" x="0px" y="0px"
	 viewBox="0 0 48 52" style="enable-background:new 0 0 48 52;" xml:space="preserve">
<style type="text/css">
	.st0{fill:#FFFFFF;}
	.st1{fill:#0A0A0A;}
</style>
<path class="st0" d="M40.6,28.6c0.1,0.5,0.6,0.9,1.2,0.9h0.3c0.6-0.1,1.1-0.7,0.8-1.4c-1.1-4.5-3.5-6.2-5.4-7
	c-0.6-0.2-1.3,0.1-1.5,0.7s0.1,1.3,0.7,1.5C38.6,24.1,39.9,25.9,40.6,28.6z"/>
<path class="st1" d="M47.7,26c-1.1-4.4-3.2-7.5-6.1-9.1c-4.1-2.2-8.5-0.8-9.3-0.6c-3.7,0.7-5.2,0.6-5.2,0.6h-0.4c0,0-1.5,0-5.2-0.6
	c-0.7-0.2-5.2-1.6-9.3,0.6c-2.3,1.2-4,3.3-5.2,6H4.6c-2.5,0-4.6,2-4.6,4.4v10c0,2.4,2.1,4.4,4.6,4.4h21.8c0.6,0,1.2-0.5,1.2-1.2v-10
	c0-0.6-0.5-1.2-1.2-1.2H8.1c0-1.8,0.2-3,0.2-3c0.9-3.7,2.5-6.2,5-7.5c3.5-1.9,7.5-0.5,7.5-0.4H21c4,0.7,5.6,0.7,5.7,0.7h0.4
	c0.1,0,1.7,0,5.7-0.7H33c0,0,4-1.4,7.5,0.4c2.4,1.3,4,3.8,5,7.5c0,0.1,2.2,12.8-7.4,21.4L38,48c0,0-2.4,2.7-6.6,0.8
	c-0.2-0.1-2.6-1.1-4.3-1.1c-1.8,0-4.1,0.9-4.4,1.1C18.5,50.7,16,48,16,47.9l-0.1-0.1c-1.4-1.3-2.5-2.6-3.6-4.1l-1.9,1.4
	c1.1,1.6,2.4,3.2,3.9,4.4c0.8,0.9,2.8,2.3,5.5,2.3c1.2,0,2.3-0.2,3.7-0.8c0.6-0.2,2.4-0.8,3.5-0.8s2.8,0.6,3.5,0.8
	c4.5,2,8,0,9.3-1.5C50.2,39.9,47.8,26.5,47.7,26z M25.3,39.4h-3.5v-2.8c0-0.6-0.5-1.2-1.2-1.2c-0.6,0-1.2,0.5-1.2,1.2v2.8h-4v-2.8
	c0-0.6-0.5-1.2-1.2-1.2c-0.6,0-1.2,0.5-1.2,1.2v2.8H9.1v-2.8c0-0.6-0.5-1.2-1.2-1.2s-1.2,0.5-1.2,1.2v2.8H4.6c-1.3,0-2.3-0.9-2.3-2
	v-6.2c0.7,0.4,1.5,0.6,2.3,0.6h20.7C25.3,31.8,25.3,39.4,25.3,39.4z M4.6,29.5c-1.3,0-2.3-0.9-2.3-2c0-1.2,1.1-2,2.3-2h1.6
	c-0.1,0.2-0.1,0.4-0.2,0.6c0,0.1-0.2,1.4-0.3,3.4H4.6z M20.9,7c0.1,0,3,1.3,5,6.1c0.2,0.4,0.5,0.7,1.1,0.7h0.4c1.5,0,6.3-0.2,9-3.5
	c2.1-2.6,3.4-8.5,3.5-8.9s0-0.7-0.3-1.1S38.8,0,38.4,0.2c-0.6,0.1-6.6,1.3-9.1,3.1c-1.8,1.3-2.6,3.6-3.1,5.6c-2.1-3.1-4.3-3.9-4.4-4
	c-0.6-0.2-1.3,0.1-1.5,0.6C20,6.1,20.4,6.8,20.9,7z M30.7,5.1C32,4.2,34.9,3.3,37,2.9c-0.5,2-1.5,4.7-2.5,6.1
	c-1.6,2-4.6,2.5-6.2,2.6C28.4,9.5,28.9,6.4,30.7,5.1z"/>
</svg>
