<?xml version="1.0" encoding="utf-8"?>
<!-- Generator: Adobe Illustrator 23.0.3, SVG Export Plug-In . SVG Version: 6.00 Build 0)  -->
<svg version="1.1" id="katman_1" xmlns="http://www.w3.org/2000/svg" xmlns:xlink="http://www.w3.org/1999/xlink" x="0px" y="0px"
	 viewBox="0 0 45 52" style="enable-background:new 0 0 45 52;" xml:space="preserve">
<style type="text/css">
	.st0{fill-rule:evenodd;clip-rule:evenodd;fill:#0A0A0A;}
</style>
<path class="st0" d="M44,43.6c0,0.4-0.2,0.7-0.6,0.9c-0.6,0.4-10.7,6.2-22.1,6.2c-4.8,0-9.8-1-14.5-3.9C6,47.9,5.2,49.3,4.4,51
	c-0.2,0.4-0.6,0.7-1,0.7c-0.2,0-0.3,0-0.5-0.1c-0.6-0.3-0.8-0.9-0.6-1.5c2.1-4.7,4.8-7.5,4.9-7.6c0.4-0.5,1.2-0.5,1.6,0
	c0.4,0.4,0.5,1.2,0,1.6c0,0-0.3,0.3-0.8,0.9c13.4,7.9,30.4-0.4,33.6-2.1c1.2-21.1-8.4-36.2-8.9-37l-0.1-0.1l-0.1-0.1
	c0,0-2.2-3.1-10.7-3.1c-0.1,0-0.1,0-0.2,0c-0.6,0.4-3.5,2.5-3,6.7l0.8,1.1l6-0.7c0.4-1.1,1.1-3,1.6-3.7c0.4-0.5,1.1-0.7,1.6-0.3
	c0.5,0.4,0.7,1.1,0.3,1.6c-0.1,0.2-0.3,0.5-0.5,0.9c1.1,1,3.6,3.5,4,6.6V15c0.4,2.2,0.8,5,0.3,6.5c-0.2,0.6-0.5,1.3-0.9,2.1
	c-0.7,1.4-1.5,3.1-2,5.2l-2.2-0.5c0.5-2.4,1.5-4.3,2.2-5.7c0.4-0.7,0.7-1.3,0.8-1.8c0.2-0.8,0.1-2.9-0.4-5.4v-0.2
	c-0.3-1.9-1.7-3.6-2.7-4.7c-0.1,0.2-0.2,0.4-0.2,0.6c-0.1,0.4-0.5,0.7-0.9,0.8L19,12.8c-0.4,0-0.8-0.1-1.1-0.5l-1.4-1.9
	c-0.1-0.1-0.2-0.3-0.2-0.5C15.5,4.6,19,1.3,21,0.3c0.2-0.1,0.3-0.1,0.5-0.1c9.8-0.1,12.6,3.4,13.1,4.1l0.1,0.1c0,0,0,0.1,0.1,0.1
	C35.2,5.1,45.6,20.8,44,43.6z M32.3,35.1c0.3,0.5,0.2,1.2-0.4,1.6c-0.2,0.1-0.4,0.2-0.6,0.2c-0.4,0-0.8-0.2-1-0.6
	c-0.2-0.4-5.9-9.3-19-2.5c-0.6,0.3-1.2,0.1-1.5-0.5s-0.1-1.3,0.5-1.5c1.6-0.8,3.1-1.4,4.5-1.9c-1.5-2-5.3-5.5-13.1-2.8
	c-0.6,0.2-1.2-0.1-1.4-0.7s0.1-1.3,0.7-1.5c10.1-3.4,14.8,2.3,16.2,4.4C27.4,27.3,32.2,35,32.3,35.1z"/>
</svg>
